<svg version="1.1" id="Layer_1" xmlns="http://www.w3.org/2000/svg" xmlns:xlink="http://www.w3.org/1999/xlink" x="0px" y="0px"
	 width="100%" viewBox="0 0 1024 1024" enable-background="new 0 0 1024 1024" xml:space="preserve">
<path fill="#000000" opacity="1.000000" stroke="none" 
	d="
M266.802094,629.761475 
	C293.480469,610.517151 314.320129,586.685669 329.599060,557.909607 
	C337.733032,542.590332 343.788513,526.468994 348.149475,509.797119 
	C352.555878,492.951355 355.410217,475.759216 355.810669,458.249298 
	C355.924774,453.259888 356.331329,448.268188 356.821594,443.299042 
	C357.270905,438.745148 359.896240,437.496460 363.677124,439.964569 
	C368.020538,442.800049 370.141876,446.779022 370.313660,452.102203 
	C371.653351,493.619110 361.204468,532.269287 341.676636,568.580078 
	C324.099030,601.264526 298.147400,626.403870 268.451477,648.003967 
	C264.276337,651.040771 260.021576,653.970093 255.893204,657.068481 
	C252.528320,659.593872 249.260925,659.746582 245.778702,657.353149 
	C203.365799,628.202148 168.623611,592.558167 148.548721,544.132080 
	C138.887054,520.825378 133.601669,496.794006 132.473602,471.587555 
	C131.578339,451.583649 132.118408,431.650604 132.499039,411.669312 
	C132.679718,402.183228 138.551270,399.501282 145.425278,397.309875 
	C156.216080,393.869812 166.246063,388.638977 176.779160,384.627014 
	C197.074463,376.896698 217.059433,368.347565 237.029404,359.888855 
	C245.649872,356.237488 251.933197,357.400848 259.558929,360.432953 
	C280.444458,368.737183 301.467773,376.700073 322.517120,384.582794 
	C326.606750,386.114319 327.702393,387.554291 325.299347,391.686127 
	C319.645172,401.407928 319.849976,401.471832 309.520477,397.511169 
	C289.774109,389.939819 269.991821,382.461792 250.264145,374.842224 
	C247.741547,373.867889 245.635681,373.945374 243.124191,374.981995 
	C213.413467,387.245544 183.683838,399.465057 153.873108,411.482635 
	C149.668304,413.177765 148.175964,415.387604 148.228546,419.975708 
	C148.453751,439.629242 147.852036,459.309021 149.483826,478.917389 
	C151.736603,505.987854 159.672913,531.428833 172.443161,555.377441 
	C174.558548,559.344543 176.616486,563.351318 178.933762,567.199646 
	C182.145782,572.533875 185.680237,573.170654 189.534103,568.488892 
	C197.084869,559.316162 205.413208,551.032288 214.484161,543.366211 
	C219.915817,538.775818 219.204010,535.947632 212.611786,533.307373 
	C190.720917,524.539978 172.753067,510.640045 158.517563,491.933533 
	C153.753876,485.673676 153.625656,484.916229 158.547043,478.940704 
	C172.437012,462.075562 188.326233,447.933563 208.878967,439.064392 
	C225.401871,431.934204 242.342087,430.192139 259.626892,432.106964 
	C274.427002,433.746490 288.308197,439.310364 300.898102,447.453705 
	C304.612427,449.856201 307.596680,450.036957 310.671356,446.970245 
	C322.465179,435.207214 334.244110,423.429077 345.992676,411.620850 
	C349.027527,408.570618 347.567017,406.025604 344.988678,403.516846 
	C339.208954,397.893066 339.301392,396.657623 346.959869,394.031128 
	C356.918915,390.615601 367.091583,387.823029 378.391663,384.392120 
	C375.642853,399.234314 372.098450,412.655060 367.547546,425.825409 
	C363.264832,425.023041 362.662750,420.957336 360.374725,419.980194 
	C346.718323,433.441162 333.293884,446.673462 319.810638,459.963776 
	C320.317108,461.555756 321.859833,462.392487 323.045349,463.514709 
	C327.406860,467.643494 331.633026,471.899323 335.374817,476.604309 
	C341.588104,484.417206 341.628754,486.192993 335.186951,493.795288 
	C315.369934,517.182190 290.864716,532.862122 260.521698,538.768921 
	C254.633728,539.915100 248.651291,540.525024 242.637299,540.162170 
	C239.419083,539.968018 236.968796,540.949524 234.656342,543.305054 
	C222.051392,556.144775 209.427689,568.971497 196.536728,581.521545 
	C192.725723,585.231750 193.225845,587.926575 196.302780,591.613220 
	C209.199875,607.065613 224.368301,620.042419 240.116776,632.411255 
	C242.082169,633.954834 244.131897,635.391418 246.089340,636.944641 
	C251.613022,641.327515 252.183380,641.327271 257.881073,636.783875 
	C260.747131,634.498474 263.634888,632.240234 266.802094,629.761475 
M320.215546,483.306061 
	C319.771301,481.835785 318.977875,480.597168 317.822510,479.575378 
	C307.307068,470.276031 296.181030,461.865875 283.304108,456.041901 
	C281.920898,455.416260 280.506012,454.192596 278.700714,455.278473 
	C279.005585,457.935608 280.649353,459.914978 281.799866,462.080597 
	C286.045624,470.072540 288.370941,478.453186 286.959106,487.539642 
	C284.093658,505.981750 268.460144,517.380066 255.564163,520.198669 
	C238.433105,523.942932 224.762604,517.173523 214.668701,503.504120 
	C207.384842,493.640198 206.656311,482.382416 210.606216,470.863800 
	C212.521927,465.277222 217.218719,460.649078 216.327393,453.735046 
	C201.397049,459.842133 188.565598,468.842224 176.765594,479.551208 
	C172.912064,483.048431 173.070343,485.850250 176.337021,489.539490 
	C188.687042,503.487061 203.279312,514.514160 220.551636,521.292297 
	C236.138809,527.409119 252.749329,527.848022 268.667755,523.212036 
	C287.502380,517.726746 303.514587,506.878601 316.903778,492.397522 
	C319.080414,490.043396 321.045898,487.555237 320.215546,483.306061 
M239.486069,470.890778 
	C243.686234,477.294739 251.665848,478.945129 255.714676,474.247284 
	C259.126434,470.288635 259.429443,465.630188 256.510162,462.018921 
	C253.006454,457.684845 248.106720,456.321594 243.734818,458.464508 
	C239.456558,460.561462 237.797241,464.864136 239.486069,470.890778 
z"/>
<path fill="#000000" opacity="1.000000" stroke="none" 
	d="
M694.389404,527.107788 
	C684.692200,526.033081 676.278809,523.487610 671.064758,514.878052 
	C669.569702,512.409302 667.869263,509.805206 669.301514,506.975250 
	C670.741882,504.129333 673.889587,504.850891 676.488037,504.701813 
	C681.716064,504.401886 686.219482,506.306488 690.512146,509.122528 
	C697.202759,513.511719 704.273865,513.727478 711.372192,510.231934 
	C718.724915,506.611115 722.186584,495.709869 718.021118,489.759491 
	C716.723083,489.478790 715.759521,490.241974 714.932739,491.013245 
	C707.725159,497.737335 698.853760,497.716949 689.993713,496.801971 
	C679.087219,495.675720 672.251038,488.734589 668.221558,479.175659 
	C663.147400,467.138428 662.977112,454.384888 668.881653,442.968933 
	C677.252197,426.785248 689.421509,420.357941 707.676514,425.089142 
	C711.644287,426.117523 714.044861,429.822235 718.430786,431.599060 
	C720.774170,424.597504 726.354431,424.276398 732.521423,424.695709 
	C735.925049,424.927124 737.265503,426.192139 737.228271,429.554626 
	C737.126770,438.714203 737.194092,447.875549 737.180786,457.036194 
	C737.159851,471.522369 737.017883,486.001587 736.417664,500.483124 
	C735.966919,511.356506 730.464600,518.560303 721.196899,523.253418 
	C712.898682,527.455566 703.917480,527.790649 694.389404,527.107788 
M711.207214,479.939667 
	C715.154663,477.931152 717.651062,474.666168 718.667297,470.464050 
	C720.049072,464.750519 720.135864,458.936615 718.965149,453.150482 
	C717.624146,446.522400 711.227112,441.118439 703.243591,439.794189 
	C697.324463,438.812408 689.455505,442.309052 686.907349,448.081604 
	C682.962585,457.018097 682.287903,466.425262 688.473450,474.590454 
	C694.000061,481.885864 701.957825,483.000610 711.207214,479.939667 
z"/>
<path fill="#000000" opacity="1.000000" stroke="none" 
	d="
M489.535522,487.504761 
	C491.511780,491.128784 494.038330,494.092499 494.833984,498.654358 
	C488.224487,499.787292 481.835846,499.432404 475.478882,498.829468 
	C473.690918,498.659851 473.151764,496.618500 472.354187,495.174835 
	C467.360382,486.135681 462.427429,477.062134 457.350861,468.069672 
	C454.902130,463.732056 445.630981,460.831818 441.080200,462.664642 
	C438.942230,463.525696 439.358582,465.297852 439.351288,466.881958 
	C439.309113,476.046173 439.159943,485.215057 439.400269,494.373077 
	C439.506256,498.410004 437.996124,499.558838 434.157990,499.416107 
	C418.470947,498.832672 420.940216,501.189758 420.838562,486.102203 
	C420.673492,461.609161 420.688507,437.114502 420.727966,412.620697 
	C420.746185,401.321869 421.427856,400.527893 432.641266,400.862549 
	C444.783142,401.224945 456.931824,401.812775 469.038300,402.788971 
	C483.455627,403.951477 492.748596,414.702301 493.417999,429.068176 
	C494.043762,442.497528 488.775146,452.238007 477.306580,458.888794 
	C476.317932,459.462097 475.189392,459.915405 474.523987,461.772247 
	C479.318512,469.994843 484.331879,478.592804 489.535522,487.504761 
M445.870911,446.757294 
	C451.363312,446.740662 456.861328,447.031036 462.333679,446.229645 
	C469.470642,445.184479 474.471497,439.930634 474.528564,433.322296 
	C474.591400,426.046387 469.229401,419.198883 462.266937,418.422241 
	C456.156158,417.740601 449.967133,417.787323 443.820526,417.390228 
	C440.202850,417.156494 439.228241,418.938293 439.306946,422.226837 
	C439.454437,428.387604 439.571350,434.565094 439.274719,440.715057 
	C439.065826,445.045898 440.704620,446.956787 445.870911,446.757294 
z"/>
<path fill="#000000" opacity="1.000000" stroke="none" 
	d="
M541.848511,570.039917 
	C549.576233,553.759644 564.129028,550.505371 577.831665,553.769775 
	C582.206421,554.812073 585.392151,557.776917 589.326477,561.087280 
	C592.301941,554.933899 597.424927,554.337463 603.197205,554.550964 
	C607.073975,554.694458 608.430054,555.906616 608.385010,559.816650 
	C608.166199,578.805359 608.192749,597.796814 608.070312,616.786865 
	C608.045654,620.608887 608.010132,624.461670 607.535767,628.244568 
	C605.676392,643.072754 594.809265,653.307739 579.843445,654.078857 
	C573.382446,654.411682 566.880798,654.564636 560.413208,653.416626 
	C551.856445,651.897827 545.893616,646.984741 541.999329,639.534790 
	C539.192139,634.164612 541.387207,631.201660 547.540283,631.885925 
	C553.037048,632.497192 558.498901,633.776489 562.911194,637.287292 
	C571.061768,643.772583 587.541687,639.875671 590.017456,628.301636 
	C590.866699,624.331360 589.933167,620.873108 589.388000,617.187866 
	C587.331543,617.243896 586.481812,618.649658 585.342224,619.517761 
	C575.713501,626.852966 564.909485,627.486145 554.671448,622.453003 
	C544.609497,617.506409 538.669800,608.674377 538.645813,596.762756 
	C538.627808,587.843201 537.076599,578.762817 541.848511,570.039917 
M556.300781,589.492065 
	C556.590515,605.218994 566.863464,611.567810 581.909851,608.089905 
	C586.533325,607.021179 588.763977,603.757507 589.687866,599.360107 
	C590.756958,594.271973 590.806274,589.195374 590.090698,584.023254 
	C588.824219,574.869995 582.682190,568.858948 573.718811,568.409729 
	C565.010132,567.973267 559.575500,572.402954 557.233521,581.735046 
	C556.664185,584.003906 556.205444,586.259888 556.300781,589.492065 
z"/>
<path fill="#000000" opacity="1.000000" stroke="none" 
	d="
M470.313080,609.172302 
	C475.290985,599.396606 472.602509,592.654907 462.527008,589.601013 
	C455.845856,587.575989 449.013641,586.048889 442.247375,584.305481 
	C438.042603,583.222229 433.888947,581.978088 430.241669,579.533691 
	C419.242950,572.162354 415.996918,557.294800 422.123108,545.469849 
	C428.045502,534.038269 437.724823,529.022522 449.858734,528.071167 
	C457.842621,527.445190 465.931702,528.111877 473.392731,531.192261 
	C482.095734,534.785339 487.189911,541.887634 489.878448,550.760803 
	C490.687042,553.429565 489.500275,555.073792 486.776550,555.193970 
	C482.620605,555.377136 478.453156,555.292236 474.290863,555.342224 
	C471.882843,555.371094 470.935303,553.563538 469.763000,551.927490 
	C464.466827,544.536316 451.994507,541.474854 443.896973,545.529114 
	C437.145355,548.909485 436.755280,560.754333 443.452057,565.005920 
	C448.409973,568.153503 454.051605,569.943420 459.859192,570.524902 
	C466.936859,571.233459 473.628021,573.326660 479.737427,576.550964 
	C496.249847,585.265686 496.710938,610.942810 480.827972,622.026062 
	C467.225098,631.518250 441.175323,630.872314 427.827637,620.879700 
	C422.915344,617.202148 419.895386,612.451172 418.373962,606.623291 
	C416.893127,600.950806 418.395905,599.174866 424.342377,598.661133 
	C430.704071,598.111572 435.602753,599.050171 439.105042,605.596741 
	C444.285461,615.280029 463.277802,617.034241 470.313080,609.172302 
z"/>
<path fill="#000000" opacity="1.000000" stroke="none" 
	d="
M685.934937,627.409973 
	C672.566895,627.532959 674.716431,626.981445 674.647705,616.585510 
	C674.592590,608.256714 674.588745,599.926758 674.656982,591.598206 
	C674.695496,586.887390 673.958496,582.333191 672.579468,577.841248 
	C670.361816,570.617859 664.924866,567.230652 656.796875,568.120972 
	C650.071716,568.857544 644.799500,574.168701 644.190308,580.913208 
	C642.974243,594.375916 643.224548,607.879028 643.464722,621.361267 
	C643.549805,626.138062 642.266052,627.700745 637.344360,627.475098 
	C622.947876,626.815308 624.918457,628.815002 624.846191,614.726807 
	C624.718018,589.739746 624.741272,564.751648 624.777588,539.764038 
	C624.794617,528.070740 626.344849,526.982178 638.051880,528.505737 
	C642.156921,529.039978 643.395630,530.968079 643.338135,534.741699 
	C643.224121,542.236145 643.304932,549.733765 643.319946,557.230042 
	C643.321899,558.216492 643.248840,559.246155 644.227539,560.180359 
	C646.823425,560.940552 648.890503,559.453857 650.799500,557.889893 
	C659.409790,550.835876 669.142273,550.963623 678.594421,554.783020 
	C687.676636,558.453064 690.908936,566.487488 691.571411,576.082031 
	C692.651978,591.733093 692.012146,607.382751 692.366394,623.027344 
	C692.472961,627.731201 689.506897,627.460815 685.934937,627.409973 
z"/>
<path fill="#000000" opacity="1.000000" stroke="none" 
	d="
M536.948669,454.686096 
	C539.418030,454.619202 541.342285,454.945282 543.194641,455.858246 
	C546.110413,457.295380 548.843445,456.436890 551.020020,454.442963 
	C553.361084,452.298431 551.865845,450.029510 550.757446,447.696655 
	C545.735840,437.127777 534.001709,435.402283 526.036682,444.161072 
	C524.263916,446.110535 511.739990,447.686920 509.915649,445.827728 
	C507.580353,443.447937 508.326904,440.349243 509.971436,438.027100 
	C514.584167,431.513885 520.304077,425.923737 528.411804,424.489319 
	C536.964783,422.976166 545.737610,423.370056 553.976868,426.355530 
	C562.820435,429.559998 567.731689,435.855408 568.497498,445.746368 
	C569.760193,462.055359 568.976868,478.359283 569.358215,494.658997 
	C569.437683,498.055420 568.322937,499.659271 564.798584,499.367401 
	C562.979248,499.216705 561.135559,499.269043 559.307007,499.338959 
	C554.435852,499.525177 550.688049,498.193298 550.153809,492.552765 
	C547.793091,492.394135 546.793701,494.193756 545.396790,495.193481 
	C536.590698,501.495789 521.939026,502.288971 513.153320,496.950348 
	C506.638763,492.991791 502.596100,486.994659 503.203735,479.679535 
	C503.917084,471.091461 507.226685,463.066711 516.205688,459.328522 
	C522.686584,456.630371 529.646423,455.832581 536.948669,454.686096 
M549.649048,479.078735 
	C550.484497,477.089691 551.529053,475.158691 552.101501,473.096680 
	C552.790039,470.616730 551.731018,468.675385 549.087036,468.375305 
	C542.291321,467.603851 535.421143,467.324646 528.711914,468.720001 
	C524.878601,469.517273 522.298035,472.295349 522.237366,476.554535 
	C522.180054,480.588379 524.018127,483.665680 527.766174,485.250946 
	C535.627625,488.575989 543.708984,486.418854 549.649048,479.078735 
z"/>
<path fill="#000000" opacity="1.000000" stroke="none" 
	d="
M802.659912,427.062317 
	C819.857910,434.769684 821.353333,450.164642 821.388977,463.933411 
	C821.397339,467.151093 818.678772,466.297607 816.899658,466.307800 
	C803.248230,466.386047 789.596130,466.355103 775.944275,466.367706 
	C768.990662,466.374146 768.364746,467.316559 770.917358,473.862488 
	C775.854919,486.524170 789.193420,489.970612 801.201538,481.203766 
	C806.897034,477.045685 812.713928,475.761261 819.434021,477.134003 
	C820.848022,479.946808 819.235596,482.131897 818.022766,484.146973 
	C812.661621,493.053894 805.037781,498.635620 794.457825,499.864838 
	C781.902100,501.323608 770.345459,499.974823 760.719421,490.453064 
	C753.708130,483.517639 752.118835,475.130432 751.958191,465.866364 
	C751.703796,451.208435 754.525696,438.100403 767.755554,429.256317 
	C770.173523,427.639954 772.636780,426.191559 775.366455,425.740112 
	C784.396484,424.246613 793.475525,423.228058 802.659912,427.062317 
M776.100647,455.648041 
	C784.023315,455.154266 791.926208,454.381805 799.889282,454.552338 
	C802.830200,454.615356 802.652649,452.473724 802.151489,450.262695 
	C800.757690,444.113068 795.928162,439.561951 789.435059,438.459015 
	C782.438171,437.270538 775.441040,440.199097 772.098511,445.715210 
	C768.895935,451.000336 769.578430,453.074707 776.100647,455.648041 
z"/>
<path fill="#000000" opacity="1.000000" stroke="none" 
	d="
M629.730347,443.286316 
	C624.189453,438.674530 618.357483,438.785858 612.567200,441.447784 
	C606.666504,444.160431 604.310242,449.228455 604.209717,455.633484 
	C604.011047,468.288971 603.470947,480.940857 603.409485,493.595856 
	C603.389038,497.792236 602.347656,499.493469 597.803955,499.458069 
	C585.560303,499.362671 584.835510,498.863159 584.782776,486.510254 
	C584.720215,471.849457 584.680847,457.188538 584.659241,442.527618 
	C584.654846,439.530029 584.589172,436.514862 584.870544,433.537933 
	C585.645569,425.338470 591.950989,421.887726 599.468872,425.257660 
	C602.728271,426.718719 601.970093,430.065125 603.329773,432.666199 
	C606.812317,433.190247 609.234253,431.111359 611.754089,429.284119 
	C619.981079,423.318420 628.810303,421.020905 638.418518,425.548950 
	C647.474243,429.816589 651.754883,437.482117 651.959778,447.199280 
	C652.296814,463.186676 652.172058,479.183441 652.315674,495.175598 
	C652.342224,498.135010 651.157043,499.387451 648.170776,499.352173 
	C631.531616,499.155670 635.107788,501.184845 634.719116,487.027344 
	C634.413269,475.884155 635.250732,464.716492 633.808655,453.593506 
	C633.327698,449.884094 632.645020,446.367615 629.730347,443.286316 
z"/>
<path fill="#000000" opacity="1.000000" stroke="none" 
	d="
M731.940857,607.654846 
	C734.229126,611.964355 737.863708,612.976807 741.875244,612.606567 
	C746.418640,612.187317 747.534912,614.161438 747.467651,618.395264 
	C747.317993,627.807434 747.403992,627.993286 737.714844,628.109558 
	C734.570374,628.147278 731.390930,627.867432 728.277283,627.400208 
	C718.218872,625.891113 713.079224,620.002991 712.738953,609.842834 
	C712.326782,597.534851 713.272522,585.198059 711.867065,572.905640 
	C711.590454,570.486328 711.073730,568.784485 708.302124,568.383362 
	C706.249634,568.086365 703.125427,569.400024 702.793396,565.773926 
	C702.440796,561.924438 702.080200,557.158325 706.228699,555.648804 
	C711.858215,553.600403 712.670532,549.876221 712.766357,544.860901 
	C712.889832,538.396729 714.783386,536.784668 721.362976,536.612732 
	C722.694580,536.577881 724.035889,536.704224 725.358887,536.592651 
	C728.891235,536.294800 730.364380,537.599854 730.436157,541.391724 
	C730.659851,553.216797 730.795837,553.251038 742.375916,554.802307 
	C744.683716,555.111389 746.156738,555.964233 746.204529,558.465088 
	C746.245911,560.629333 746.259583,562.794067 746.304199,564.958252 
	C746.350830,567.218811 745.298340,568.368042 742.998840,568.300903 
	C742.666260,568.291199 742.332458,568.305481 741.999817,568.321411 
	C730.375671,568.877747 730.380737,568.878052 730.392517,580.388184 
	C730.401733,589.378662 730.808716,598.348022 731.940857,607.654846 
z"/>
<path fill="#000000" opacity="1.000000" stroke="none" 
	d="
M877.517578,441.363342 
	C874.809204,441.304871 872.475952,441.115509 870.150146,441.182861 
	C860.783752,441.454132 854.819031,447.540558 854.192505,456.892181 
	C853.379089,469.033569 853.154236,481.183929 853.424377,493.334869 
	C853.521118,497.683563 852.489441,499.549011 847.647888,499.467102 
	C835.496155,499.261566 835.653564,499.492004 835.767090,487.249329 
	C835.938232,468.779724 836.587646,450.298553 834.868896,431.852295 
	C834.425354,427.091736 836.687073,424.866791 841.616821,424.675812 
	C850.432251,424.334320 851.937073,425.212494 854.041809,431.991608 
	C856.612854,432.146423 858.853638,431.310089 860.957764,429.816193 
	C864.766418,427.112061 868.809204,424.861389 873.310364,423.446289 
	C875.001282,422.914642 876.485596,422.433044 877.866577,423.948700 
	C879.947693,426.232727 879.972290,438.321808 877.517578,441.363342 
z"/>
<path fill="#000000" opacity="1.000000" stroke="none" 
	d="
M506.656189,591.999878 
	C506.690948,581.359436 506.827637,571.217773 506.714233,561.078979 
	C506.663635,556.551331 508.118164,554.477722 513.066223,554.641541 
	C525.156921,555.041748 524.115234,553.579834 524.171204,565.672852 
	C524.257324,584.291321 524.143005,602.911804 524.399963,621.527527 
	C524.463318,626.118469 522.997070,627.625854 518.427673,627.465271 
	C504.508545,626.975891 506.905823,629.139771 506.689728,615.939453 
	C506.561859,608.128174 506.659821,600.313232 506.656189,591.999878 
z"/>
<path fill="#000000" opacity="1.000000" stroke="none" 
	d="
M517.430237,525.180603 
	C524.946838,528.729675 527.184204,533.493713 524.192627,538.918579 
	C521.338440,544.094299 513.488098,546.002258 507.996429,542.629822 
	C504.039551,540.199829 504.025543,536.335388 505.326630,532.492371 
	C506.782562,528.192078 512.135010,524.971252 517.430237,525.180603 
z"/>
</svg>